# xmcd CD database file
#
# Track frame offsets:
#	150
#	29425
#	73225
#	87175
#	93850
#	101725
#	131725
#	140650
#	180325
#	196600
#	204700
#	232737
#	241750
#	256550
#
# Disc length: 3927 seconds
#
# Revision: 0
# Processed by: cddbd v1.5.1PL0 Copyright (c) Steve Scherf et al.
# Submitted via: CDex 1.51
#
DISCID=b30f550e
DTITLE=Ritchie Blackmore's Rainbow - The Legend Lives On... Disc 2
DYEAR=1995
DGENRE=Hard Rock
TTITLE0=Black Masquerade
TTITLE1=Ariel
TTITLE2=Street Of Dreams
TTITLE3=Trad Song#1
TTITLE4=Since You Been Gone
TTITLE5=Perfect Strangers
TTITLE6=Adlib Song#2
TTITLE7=Hall Of The Mountain King
TTITLE8=Stone Cold
TTITLE9=Trad Song#2
TTITLE10=Burn
TTITLE11=Maybe Next Time
TTITLE12=Woman From Tokyo
TTITLE13=Smoke On The Water
EXTD=YEAR: 1995
EXTT0=
EXTT1=
EXTT2=
EXTT3=
EXTT4=
EXTT5=
EXTT6=
EXTT7=
EXTT8=
EXTT9=
EXTT10=
EXTT11=
EXTT12=
EXTT13=
PLAYORDER=
